<?xml version="1.0" encoding="UTF-8" ?>
<!DOCTYPE svg PUBLIC "-//W3C//DTD SVG 1.1//EN" "http://www.w3.org/Graphics/SVG/1.1/DTD/svg11.dtd">
<svg width="987pt" height="824pt" viewBox="0 0 987 824" version="1.1" xmlns="http://www.w3.org/2000/svg">
<path fill="#fefefe" d=" M 0.00 0.00 L 185.69 0.00 C 190.51 50.51 198.65 100.74 210.51 150.08 C 220.75 192.44 233.72 234.20 250.58 274.41 C 268.33 316.38 290.02 357.27 319.76 392.06 C 333.73 408.25 349.65 423.06 368.23 433.83 C 380.07 440.79 393.18 445.59 406.76 447.72 C 410.34 425.77 413.62 403.78 416.97 381.79 C 398.51 381.82 379.94 376.06 365.43 364.51 C 344.92 348.45 332.18 324.70 323.24 300.69 C 310.30 265.15 304.53 227.44 301.36 189.89 C 299.41 166.31 298.73 142.64 298.75 118.99 C 299.27 79.22 301.32 39.38 307.13 0.00 L 673.38 0.00 C 677.22 24.83 679.15 49.92 680.52 74.99 C 682.81 121.69 682.22 168.63 676.66 215.10 C 673.28 242.11 668.19 269.02 659.43 294.85 C 653.33 312.35 645.61 329.52 634.48 344.44 C 625.26 356.91 613.40 367.70 599.22 374.23 C 588.11 379.45 575.79 381.63 563.57 381.79 C 567.05 403.61 570.04 425.53 573.80 447.30 C 576.20 447.63 578.58 446.80 580.93 446.37 C 602.01 441.67 620.88 430.04 637.06 416.04 C 663.05 393.38 683.21 364.87 700.31 335.12 C 720.58 299.62 736.26 261.67 749.27 222.97 C 773.23 150.78 787.48 75.62 794.94 0.00 L 987.00 0.00 L 987.00 819.75 C 981.04 817.93 978.08 812.06 974.77 807.30 C 962.99 788.60 951.96 769.44 940.61 750.47 C 940.07 749.35 938.86 748.10 939.97 746.93 C 950.21 729.56 960.54 712.22 971.26 695.13 C 974.91 689.72 978.08 683.31 984.50 680.73 C 984.64 680.18 984.93 679.07 985.07 678.52 C 974.50 678.91 963.94 678.64 953.38 678.46 C 953.31 678.96 953.16 679.98 953.09 680.48 C 954.39 681.48 956.96 681.96 956.80 684.04 C 956.08 688.27 953.69 691.97 951.78 695.75 C 944.73 708.53 937.07 720.96 929.88 733.66 C 923.98 723.38 917.90 713.21 911.94 702.98 C 908.74 697.13 904.80 691.48 903.10 684.97 C 901.74 681.19 907.83 682.04 907.58 678.53 C 895.96 678.56 884.35 678.94 872.73 678.49 C 872.86 679.05 873.13 680.17 873.26 680.73 C 879.69 683.30 883.04 689.66 886.72 695.09 C 898.03 713.00 908.93 731.16 919.70 749.40 C 909.42 766.82 898.94 784.13 888.14 801.22 C 884.71 806.35 881.57 811.74 877.32 816.24 C 875.73 818.01 873.47 818.86 871.33 819.72 C 871.26 820.27 871.12 821.36 871.05 821.91 C 882.35 821.96 893.65 822.02 904.96 821.91 C 904.88 821.36 904.72 820.25 904.64 819.70 C 903.37 819.12 902.10 818.58 900.85 818.01 C 900.81 812.83 903.68 808.38 905.92 803.92 C 913.29 790.48 921.21 777.33 928.65 763.93 C 930.09 764.96 930.74 766.73 931.67 768.20 C 938.59 780.35 945.79 792.35 952.25 804.75 C 954.37 808.62 956.11 812.69 957.06 817.01 C 955.92 818.51 954.20 819.21 952.42 819.62 C 952.33 820.20 952.15 821.37 952.06 821.95 C 963.71 822.04 975.35 821.83 987.00 822.00 L 987.00 824.00 L 803.82 824.00 C 818.60 823.13 833.66 816.92 842.80 804.92 C 851.23 794.62 854.13 781.04 854.71 768.03 C 855.31 750.34 854.87 732.64 855.01 714.94 C 855.13 705.29 854.54 695.48 856.56 685.99 C 856.89 683.04 859.28 681.21 862.03 680.68 C 861.99 680.10 861.89 678.95 861.84 678.38 C 851.14 678.96 840.43 678.63 829.73 678.51 C 829.40 681.45 832.72 681.15 834.40 682.55 C 836.35 684.71 836.77 687.73 837.20 690.51 C 837.92 696.30 838.01 702.15 837.99 707.98 C 838.47 724.98 838.14 742.00 838.24 759.01 C 838.19 769.68 837.52 780.88 832.28 790.44 C 828.42 797.76 821.53 803.29 813.66 805.75 C 803.01 809.08 790.91 808.29 781.06 802.92 C 772.53 798.34 766.98 789.49 764.80 780.24 C 762.07 769.02 763.26 757.39 763.00 745.97 C 763.21 728.06 762.45 710.13 763.74 692.25 C 764.08 687.56 765.23 681.28 771.00 680.78 C 771.00 680.20 770.99 679.02 770.98 678.44 C 759.80 678.88 748.62 678.65 737.43 678.53 C 737.32 681.05 739.86 681.32 741.52 682.38 C 743.46 684.06 743.86 686.78 744.32 689.18 C 745.23 696.07 745.25 703.04 745.23 709.99 C 745.85 729.93 745.31 749.90 745.56 769.85 C 746.03 782.73 749.25 796.13 757.95 806.03 C 767.05 817.76 782.00 823.20 796.44 824.00 L 182.61 824.00 C 201.04 822.43 219.07 814.36 231.48 800.46 C 253.14 776.76 256.89 738.86 240.87 711.15 C 232.61 696.88 218.98 685.93 203.34 680.74 C 187.57 675.52 170.20 675.66 154.35 680.43 C 138.55 685.27 124.36 695.51 115.34 709.42 C 103.81 726.93 100.54 749.38 105.57 769.63 C 109.09 783.94 117.18 797.08 128.36 806.67 C 140.00 816.86 155.06 822.73 170.41 824.00 L 0.00 824.00 L 0.00 536.41 C 2.76 537.31 4.58 539.61 4.71 542.54 C 6.14 555.29 5.29 568.15 5.52 580.95 C 5.77 592.57 4.61 604.42 7.42 615.82 C 9.44 624.67 15.07 632.55 22.47 637.72 C 31.70 643.85 43.30 645.17 54.09 643.86 C 64.24 642.41 74.02 637.16 79.99 628.71 C 86.75 619.31 88.19 607.28 88.01 596.01 C 88.11 579.66 87.69 563.29 88.40 546.95 C 88.65 542.71 88.92 537.05 94.07 535.97 C 93.01 534.15 90.78 534.93 89.10 534.83 C 82.31 535.31 75.50 534.70 68.70 534.84 C 69.42 536.64 71.37 537.14 72.79 538.22 C 73.91 539.49 74.20 541.25 74.50 542.87 C 75.65 550.52 74.98 558.28 75.47 565.98 C 75.55 575.66 75.48 585.34 75.51 595.02 C 75.35 604.07 74.89 613.81 69.46 621.47 C 64.54 628.70 55.58 632.23 47.03 632.03 C 38.53 632.05 29.50 628.66 24.66 621.35 C 19.61 614.33 18.88 605.37 18.79 597.00 C 18.75 586.67 18.71 576.34 18.81 566.01 C 19.25 558.41 18.61 550.76 19.70 543.20 C 19.95 541.50 20.41 539.78 21.35 538.33 C 22.79 537.18 25.11 536.90 25.37 534.74 C 16.92 535.05 8.46 535.09 0.00 534.73 L 0.00 0.00 Z" />
<path fill="#1d1d1d" d=" M 185.69 0.00 L 307.13 0.00 C 301.32 39.38 299.27 79.22 298.75 118.99 C 298.73 142.64 299.41 166.31 301.36 189.89 C 304.53 227.44 310.30 265.15 323.24 300.69 C 332.18 324.70 344.92 348.45 365.43 364.51 C 379.94 376.06 398.51 381.82 416.97 381.79 C 413.62 403.78 410.34 425.77 406.76 447.72 C 393.18 445.59 380.07 440.79 368.23 433.83 C 349.65 423.06 333.73 408.25 319.76 392.06 C 290.02 357.27 268.33 316.38 250.58 274.41 C 233.72 234.20 220.75 192.44 210.51 150.08 C 198.65 100.74 190.51 50.51 185.69 0.00 Z" />
<path fill="#1d1d1d" d=" M 673.38 0.00 L 794.94 0.00 C 787.48 75.62 773.23 150.78 749.27 222.97 C 736.26 261.67 720.58 299.62 700.31 335.12 C 683.21 364.87 663.05 393.38 637.06 416.04 C 620.88 430.04 602.01 441.67 580.93 446.37 C 578.58 446.80 576.20 447.63 573.80 447.30 C 570.04 425.53 567.05 403.61 563.57 381.79 C 575.79 381.63 588.11 379.45 599.22 374.23 C 613.40 367.70 625.26 356.91 634.48 344.44 C 645.61 329.52 653.33 312.35 659.43 294.85 C 668.19 269.02 673.28 242.11 676.66 215.10 C 682.22 168.63 682.81 121.69 680.52 74.99 C 679.15 49.92 677.22 24.83 673.38 0.00 Z" />
<path fill="#cece0b" d=" M 329.77 1.00 C 332.70 1.01 335.66 0.87 338.53 1.59 C 354.13 5.32 368.64 12.81 381.54 22.26 C 403.86 38.52 421.97 59.84 437.64 82.41 C 459.21 113.71 475.99 148.03 490.34 183.16 C 504.06 148.94 520.48 115.64 541.11 85.03 C 553.23 67.27 566.76 50.35 582.61 35.77 C 596.88 22.56 613.26 11.26 631.65 4.64 C 636.28 2.83 641.25 2.12 645.89 0.32 C 647.47 0.90 649.15 1.07 650.84 1.11 C 652.93 22.73 654.97 44.36 657.06 65.99 C 653.91 66.02 650.76 66.06 647.64 66.46 C 647.56 66.47 647.41 66.48 647.33 66.49 C 646.73 66.49 645.52 66.50 644.91 66.50 L 644.52 66.34 L 644.22 66.55 L 644.54 66.83 C 641.23 67.29 637.94 67.83 634.71 68.66 C 634.63 68.68 634.47 68.73 634.38 68.75 C 633.72 68.94 632.40 69.32 631.74 69.51 L 631.50 69.57 L 631.28 69.65 C 630.64 69.86 629.38 70.27 628.75 70.48 L 628.52 70.55 L 628.31 70.65 C 626.79 71.27 625.28 71.87 623.74 72.38 L 623.50 72.46 L 623.29 72.57 C 620.78 73.90 618.22 75.10 615.70 76.38 L 615.49 76.48 L 615.30 76.62 C 612.39 78.49 609.48 80.35 606.68 82.37 L 606.49 82.50 L 606.32 82.64 C 604.85 83.95 603.32 85.19 601.75 86.36 L 601.54 86.51 L 601.37 86.69 C 600.94 87.12 600.07 87.98 599.64 88.41 C 599.59 88.46 599.50 88.56 599.45 88.61 C 598.99 89.05 598.08 89.93 597.63 90.37 C 597.58 90.41 597.47 90.50 597.42 90.55 C 597.01 90.87 596.18 91.50 595.76 91.81 C 594.47 92.45 593.37 93.43 592.90 94.82 C 591.89 96.91 590.19 98.55 588.69 100.29 L 588.53 100.47 L 588.40 100.68 C 587.64 102.00 586.69 103.18 585.68 104.31 L 585.51 104.48 L 585.39 104.69 C 576.58 117.54 569.69 131.66 564.49 146.34 C 564.47 146.41 564.42 146.55 564.39 146.63 C 561.26 155.04 558.84 163.69 556.52 172.35 C 556.50 172.42 556.47 172.56 556.45 172.64 C 545.55 216.52 542.15 261.92 541.77 307.03 C 541.35 354.03 544.39 401.06 550.84 447.62 C 548.20 447.50 545.52 448.01 542.91 447.55 L 542.53 447.33 L 542.20 447.54 L 542.50 447.88 C 540.84 447.83 539.18 447.75 537.54 447.63 L 537.73 447.33 C 537.61 447.35 537.36 447.40 537.23 447.42 C 536.31 447.49 534.47 447.64 533.55 447.72 L 533.76 447.40 C 533.63 447.42 533.38 447.46 533.26 447.47 C 532.33 447.53 530.47 447.65 529.55 447.71 L 529.75 447.39 C 529.62 447.41 529.37 447.45 529.24 447.47 C 528.37 447.55 526.62 447.71 525.74 447.79 L 525.77 447.25 L 525.26 447.21 L 525.23 447.73 C 524.36 447.74 522.62 447.74 521.75 447.74 L 521.77 447.23 L 521.26 447.20 L 521.24 447.72 C 520.36 447.72 518.62 447.73 517.75 447.73 L 517.76 447.22 L 517.25 447.20 L 517.24 447.72 C 511.99 447.74 506.74 447.95 501.50 447.62 L 501.73 447.33 C 501.60 447.34 501.35 447.36 501.22 447.37 L 499.55 447.57 L 499.52 447.36 C 499.45 447.37 499.30 447.38 499.23 447.39 L 497.81 447.54 L 497.48 447.28 L 497.13 447.42 L 497.37 447.77 L 495.71 447.58 C 495.62 447.57 495.44 447.56 495.34 447.56 L 493.68 447.55 C 493.60 447.56 493.42 447.56 493.34 447.56 L 491.64 447.58 C 491.56 447.58 491.39 447.58 491.30 447.58 L 489.71 447.58 C 489.61 447.58 489.42 447.58 489.32 447.58 L 487.67 447.57 C 487.58 447.58 487.40 447.58 487.30 447.58 L 485.71 447.58 C 485.61 447.58 485.41 447.57 485.31 447.57 L 483.66 447.58 C 483.57 447.58 483.40 447.58 483.31 447.58 L 481.69 447.58 C 481.60 447.58 481.41 447.57 481.31 447.57 L 479.65 447.58 C 479.56 447.58 479.39 447.58 479.30 447.58 L 477.71 447.58 C 477.61 447.58 477.42 447.58 477.32 447.58 L 475.69 447.57 C 475.59 447.57 475.39 447.57 475.29 447.58 L 473.69 447.59 C 473.60 447.59 473.43 447.59 473.34 447.59 L 471.66 447.59 C 471.58 447.59 471.41 447.59 471.33 447.58 L 469.73 447.52 L 469.51 447.51 L 469.28 447.52 C 467.64 447.57 466.00 447.59 464.37 447.57 L 464.55 447.37 C 464.45 447.37 464.26 447.37 464.16 447.38 L 462.71 447.41 L 462.54 447.43 C 462.51 447.43 462.44 447.44 462.40 447.45 C 461.52 447.41 459.75 447.35 458.86 447.31 L 458.50 447.18 L 458.22 447.38 L 458.52 447.62 C 456.55 447.51 454.59 447.51 452.63 447.56 L 452.63 447.23 C 452.55 447.32 452.39 447.49 452.31 447.58 C 451.42 447.54 449.64 447.47 448.76 447.43 C 448.65 447.43 448.44 447.41 448.33 447.40 L 448.54 447.62 L 446.68 447.56 C 446.60 447.55 446.44 447.55 446.36 447.55 C 445.70 447.54 444.40 447.51 443.75 447.50 L 443.52 447.50 L 443.28 447.51 C 442.65 447.54 441.40 447.61 440.77 447.64 C 440.63 447.63 440.35 447.60 440.21 447.59 C 439.57 447.58 438.28 447.56 437.64 447.55 C 437.56 447.50 437.39 447.41 437.31 447.36 C 434.77 447.75 432.20 447.59 429.66 447.36 C 435.81 405.19 438.41 362.55 438.93 319.96 C 438.96 283.08 437.28 246.08 431.59 209.59 C 431.58 209.52 431.56 209.39 431.55 209.32 C 428.24 188.43 423.57 167.71 416.63 147.71 L 416.57 147.48 L 416.47 147.27 C 415.39 144.75 414.55 142.15 413.54 139.61 C 413.51 139.54 413.45 139.39 413.42 139.31 C 409.60 129.73 405.19 120.35 399.62 111.65 C 399.58 111.58 399.50 111.44 399.46 111.37 L 398.54 109.73 L 398.42 109.52 L 398.28 109.33 C 396.63 107.16 395.21 104.82 393.58 102.62 C 393.54 102.57 393.45 102.45 393.41 102.39 C 392.13 100.78 390.84 99.19 389.57 97.58 C 389.53 97.52 389.44 97.41 389.40 97.36 C 385.79 92.70 381.12 89.03 377.23 84.66 C 376.78 83.69 376.03 83.11 375.00 82.92 C 371.12 80.71 367.61 77.84 363.68 75.68 L 363.48 75.55 L 363.26 75.45 C 361.35 74.65 359.50 73.72 357.70 72.71 L 357.49 72.59 L 357.25 72.52 C 356.62 72.30 355.35 71.84 354.72 71.62 L 354.49 71.51 L 354.23 71.42 C 353.57 71.18 352.25 70.71 351.59 70.47 C 351.53 70.45 351.39 70.40 351.32 70.37 L 349.63 69.75 C 349.54 69.72 349.37 69.67 349.29 69.64 C 346.80 68.84 344.25 68.31 341.70 67.79 L 341.75 67.36 L 341.32 67.30 L 341.26 67.73 C 339.09 67.22 336.89 66.89 334.69 66.57 L 334.47 66.53 L 334.24 66.52 C 330.62 66.25 326.99 65.93 323.35 66.04 C 325.79 44.40 327.51 22.67 329.77 1.00 Z" />
<path fill="#989696" d=" M 334.24 66.52 L 334.47 66.53 L 334.69 66.57 C 334.58 66.56 334.35 66.53 334.24 66.52 Z" />
<path fill="#989696" d=" M 644.22 66.55 L 644.52 66.34 L 644.91 66.50 L 644.54 66.83 L 644.22 66.55 Z" />
<path fill="#989696" d=" M 647.33 66.49 C 647.41 66.48 647.56 66.47 647.64 66.46 C 647.56 66.47 647.41 66.48 647.33 66.49 Z" />
<path fill="#989696" d=" M 341.32 67.30 L 341.75 67.36 L 341.70 67.79 L 341.26 67.73 L 341.32 67.30 Z" />
<path fill="#989696" d=" M 634.38 68.75 C 634.47 68.73 634.63 68.68 634.71 68.66 C 634.63 68.68 634.47 68.73 634.38 68.75 Z" />
<path fill="#989696" d=" M 349.29 69.64 C 349.37 69.67 349.54 69.72 349.63 69.75 C 349.54 69.72 349.37 69.67 349.29 69.64 Z" />
<path fill="#989696" d=" M 631.50 69.57 L 631.74 69.51 C 631.62 69.54 631.39 69.61 631.28 69.65 L 631.50 69.57 Z" />
<path fill="#989696" d=" M 351.32 70.37 C 351.39 70.40 351.53 70.45 351.59 70.47 C 351.53 70.45 351.39 70.40 351.32 70.37 Z" />
<path fill="#989696" d=" M 628.52 70.55 L 628.75 70.48 C 628.64 70.52 628.42 70.60 628.31 70.65 L 628.52 70.55 Z" />
<path fill="#989696" d=" M 354.23 71.42 L 354.49 71.51 L 354.72 71.62 C 354.60 71.57 354.35 71.47 354.23 71.42 Z" />
<path fill="#989696" d=" M 357.25 72.52 L 357.49 72.59 L 357.70 72.71 C 357.59 72.66 357.37 72.57 357.25 72.52 Z" />
<path fill="#989696" d=" M 623.50 72.46 L 623.74 72.38 C 623.62 72.43 623.40 72.53 623.29 72.57 L 623.50 72.46 Z" />
<path fill="#989696" d=" M 363.26 75.45 L 363.48 75.55 L 363.68 75.68 C 363.57 75.62 363.36 75.51 363.26 75.45 Z" />
<path fill="#989696" d=" M 615.49 76.48 L 615.70 76.38 C 615.60 76.44 615.40 76.56 615.30 76.62 L 615.49 76.48 Z" />
<path fill="#989696" d=" M 606.49 82.50 L 606.68 82.37 C 606.59 82.44 606.41 82.58 606.32 82.64 L 606.49 82.50 Z" />
<path fill="#989696" d=" M 375.00 82.92 C 376.03 83.11 376.78 83.69 377.23 84.66 C 375.57 85.21 374.82 84.63 375.00 82.92 Z" />
<path fill="#989696" d=" M 601.54 86.51 L 601.75 86.36 C 601.66 86.45 601.46 86.61 601.37 86.69 L 601.54 86.51 Z" />
<path fill="#989696" d=" M 599.45 88.61 C 599.50 88.56 599.59 88.46 599.64 88.41 C 599.59 88.46 599.50 88.56 599.45 88.61 Z" />
<path fill="#989696" d=" M 597.42 90.55 C 597.47 90.50 597.58 90.41 597.63 90.37 C 597.58 90.41 597.47 90.50 597.42 90.55 Z" />
<path fill="#989696" d=" M 592.90 94.82 C 593.37 93.43 594.47 92.45 595.76 91.81 C 596.61 93.27 594.38 95.79 592.90 94.82 Z" />
<path fill="#989696" d=" M 389.40 97.36 C 389.44 97.41 389.53 97.52 389.57 97.58 C 389.53 97.52 389.44 97.41 389.40 97.36 Z" />
<path fill="#989696" d=" M 588.53 100.47 L 588.69 100.29 C 588.62 100.39 588.47 100.58 588.40 100.68 L 588.53 100.47 Z" />
<path fill="#989696" d=" M 393.41 102.39 C 393.45 102.45 393.54 102.57 393.58 102.62 C 393.54 102.57 393.45 102.45 393.41 102.39 Z" />
<path fill="#989696" d=" M 585.51 104.48 L 585.68 104.31 C 585.61 104.40 585.46 104.59 585.39 104.69 L 585.51 104.48 Z" />
<path fill="#989696" d=" M 398.28 109.33 L 398.42 109.52 L 398.54 109.73 C 398.47 109.63 398.35 109.43 398.28 109.33 Z" />
<path fill="#989696" d=" M 399.46 111.37 C 399.50 111.44 399.58 111.58 399.62 111.65 C 399.58 111.58 399.50 111.44 399.46 111.37 Z" />
<path fill="#1d1d1d" d=" M 413.23 126.26 C 413.72 126.81 413.72 126.81 413.23 126.26 Z" />
<path fill="#1d1d1d" d=" M 563.23 136.28 C 563.77 136.77 563.77 136.77 563.23 136.28 Z" />
<path fill="#989696" d=" M 413.42 139.31 C 413.45 139.39 413.51 139.54 413.54 139.61 C 413.51 139.54 413.45 139.39 413.42 139.31 Z" />
<path fill="#989696" d=" M 564.39 146.63 C 564.42 146.55 564.47 146.41 564.49 146.34 C 564.47 146.41 564.42 146.55 564.39 146.63 Z" />
<path fill="#989696" d=" M 416.47 147.27 L 416.57 147.48 L 416.63 147.71 C 416.59 147.60 416.51 147.38 416.47 147.27 Z" />
<path fill="#1d1d1d" d=" M 422.24 148.24 C 422.73 148.79 422.73 148.79 422.24 148.24 Z" />
<path fill="#1d1d1d" d=" M 551.28 159.26 C 551.77 159.78 551.77 159.78 551.28 159.26 Z" />
<path fill="#1d1d1d" d=" M 432.26 164.26 C 432.77 164.77 432.77 164.77 432.26 164.26 Z" />
<path fill="#1d1d1d" d=" M 542.27 170.26 C 542.77 170.78 542.77 170.78 542.27 170.26 Z" />
<path fill="#989696" d=" M 556.45 172.64 C 556.47 172.56 556.50 172.42 556.52 172.35 C 556.50 172.42 556.47 172.56 556.45 172.64 Z" />
<path fill="#1d1d1d" d=" M 440.26 174.27 C 440.77 174.78 440.77 174.78 440.26 174.27 Z" />
<path fill="#1d1d1d" d=" M 535.26 183.27 C 535.78 183.77 535.78 183.77 535.26 183.27 Z" />
<path fill="#1d1d1d" d=" M 448.26 187.27 C 448.76 187.78 448.76 187.78 448.26 187.27 Z" />
<path fill="#1d1d1d" d=" M 527.26 196.28 C 527.78 196.77 527.78 196.77 527.26 196.28 Z" />
<path fill="#1d1d1d" d=" M 543.27 198.26 C 543.76 198.79 543.76 198.79 543.27 198.26 Z" />
<path fill="#1d1d1d" d=" M 455.28 201.26 C 455.76 201.78 455.76 201.78 455.28 201.26 Z" />
<path fill="#989696" d=" M 431.55 209.32 C 431.56 209.39 431.58 209.52 431.59 209.59 C 431.58 209.52 431.56 209.39 431.55 209.32 Z" />
<path fill="#1d1d1d" d=" M 520.26 210.26 C 520.76 210.77 520.76 210.77 520.26 210.26 Z" />
<path fill="#1d1d1d" d=" M 443.27 211.28 C 443.77 211.78 443.77 211.78 443.27 211.28 Z" />
<path fill="#1d1d1d" d=" M 461.26 214.26 C 461.77 214.76 461.77 214.76 461.26 214.26 Z" />
<path fill="#1d1d1d" d=" M 534.27 219.28 C 534.77 219.78 534.77 219.78 534.27 219.28 Z" />
<path fill="#1d1d1d" d=" M 514.26 223.27 C 514.77 223.77 514.77 223.77 514.26 223.27 Z" />
<path fill="#1d1d1d" d=" M 451.27 227.26 C 451.78 227.77 451.78 227.77 451.27 227.26 Z" />
<path fill="#1d1d1d" d=" M 469.26 227.28 C 469.78 227.78 469.78 227.78 469.26 227.28 Z" />
<path fill="#1d1d1d" d=" M 526.27 233.27 C 526.77 233.77 526.77 233.77 526.27 233.27 Z" />
<path fill="#1d1d1d" d=" M 506.26 236.27 C 506.77 236.78 506.77 236.78 506.26 236.27 Z" />
<path fill="#1d1d1d" d=" M 478.25 241.26 C 478.77 241.77 478.77 241.77 478.25 241.26 Z" />
<path fill="#1d1d1d" d=" M 457.26 242.26 C 457.76 242.77 457.76 242.77 457.26 242.26 Z" />
<path fill="#1d1d1d" d=" M 498.27 245.26 C 498.78 245.77 498.78 245.77 498.27 245.26 Z" />
<path fill="#1d1d1d" d=" M 487.27 247.27 C 487.77 247.78 487.77 247.78 487.27 247.27 Z" />
<path fill="#1d1d1d" d=" M 449.27 249.27 C 449.77 249.77 449.77 249.77 449.27 249.27 Z" />
<path fill="#1d1d1d" d=" M 519.27 249.27 C 519.76 249.77 519.76 249.77 519.27 249.27 Z" />
<path fill="#1d1d1d" d=" M 532.27 249.27 C 532.77 249.77 532.77 249.77 532.27 249.27 Z" />
<path fill="#1d1d1d" d=" M 466.27 252.27 C 466.77 252.77 466.77 252.77 466.27 252.27 Z" />
<path fill="#1d1d1d" d=" M 510.27 260.27 C 510.77 260.77 510.77 260.77 510.27 260.27 Z" />
<path fill="#1d1d1d" d=" M 458.26 265.27 C 458.76 265.77 458.76 265.77 458.26 265.27 Z" />
<path fill="#1d1d1d" d=" M 524.27 266.28 C 524.77 266.78 524.77 266.78 524.27 266.28 Z" />
<path fill="#1d1d1d" d=" M 538.24 266.31 C 538.76 266.82 538.76 266.82 538.24 266.31 Z" />
<path fill="#1d1d1d" d=" M 477.27 267.26 C 477.77 267.77 477.77 267.77 477.27 267.26 Z" />
<path fill="#1d1d1d" d=" M 502.27 269.27 C 502.77 269.78 502.77 269.78 502.27 269.27 Z" />
<path fill="#1d1d1d" d=" M 493.27 271.27 C 493.77 271.77 493.77 271.77 493.27 271.27 Z" />
<path fill="#1d1d1d" d=" M 467.26 272.27 C 467.76 272.77 467.76 272.77 467.26 272.27 Z" />
<path fill="#1d1d1d" d=" M 485.26 276.27 C 485.77 276.78 485.77 276.78 485.26 276.27 Z" />
<path fill="#1d1d1d" d=" M 517.27 277.27 C 517.76 277.77 517.76 277.77 517.27 277.27 Z" />
<path fill="#1d1d1d" d=" M 451.27 279.27 C 451.77 279.78 451.77 279.78 451.27 279.27 Z" />
<path fill="#1d1d1d" d=" M 508.27 286.27 C 508.77 286.77 508.77 286.77 508.27 286.27 Z" />
<path fill="#1d1d1d" d=" M 526.26 288.27 C 526.76 288.78 526.76 288.78 526.26 288.27 Z" />
<path fill="#1d1d1d" d=" M 461.27 289.27 C 461.77 289.78 461.77 289.78 461.27 289.27 Z" />
<path fill="#1d1d1d" d=" M 475.27 290.27 C 475.77 290.77 475.77 290.77 475.27 290.27 Z" />
<path fill="#1d1d1d" d=" M 499.27 293.28 C 499.77 293.78 499.77 293.78 499.27 293.28 Z" />
<path fill="#1d1d1d" d=" M 490.27 299.28 C 490.77 299.78 490.77 299.78 490.27 299.28 Z" />
<path fill="#1d1d1d" d=" M 468.27 301.28 C 468.77 301.78 468.77 301.78 468.27 301.28 Z" />
<path fill="#1d1d1d" d=" M 518.27 301.27 C 518.76 301.78 518.76 301.78 518.27 301.27 Z" />
<path fill="#1d1d1d" d=" M 482.28 303.27 C 482.77 303.77 482.77 303.77 482.28 303.27 Z" />
<path fill="#1d1d1d" d=" M 454.27 305.27 C 454.77 305.77 454.77 305.77 454.27 305.27 Z" />
<path fill="#1d1d1d" d=" M 507.27 308.27 C 507.77 308.77 507.77 308.77 507.27 308.27 Z" />
<path fill="#1d1d1d" d=" M 526.27 313.27 C 526.77 313.77 526.77 313.77 526.27 313.27 Z" />
<path fill="#1d1d1d" d=" M 499.27 315.27 C 499.77 315.77 499.77 315.77 499.27 315.27 Z" />
<path fill="#1d1d1d" d=" M 461.28 318.27 C 461.78 318.77 461.78 318.77 461.28 318.27 Z" />
<path fill="#1d1d1d" d=" M 474.27 319.27 C 474.77 319.77 474.77 319.77 474.27 319.27 Z" />
<path fill="#1d1d1d" d=" M 489.26 323.26 C 489.77 323.77 489.77 323.77 489.26 323.26 Z" />
<path fill="#1d1d1d" d=" M 516.26 323.26 C 516.77 323.77 516.77 323.77 516.26 323.26 Z" />
<path fill="#1d1d1d" d=" M 453.27 330.27 C 453.77 330.77 453.77 330.77 453.27 330.27 Z" />
<path fill="#1d1d1d" d=" M 505.27 332.27 C 505.77 332.77 505.77 332.77 505.27 332.27 Z" />
<path fill="#1d1d1d" d=" M 481.27 333.27 C 481.77 333.78 481.77 333.78 481.27 333.27 Z" />
<path fill="#1d1d1d" d=" M 466.26 336.27 C 466.76 336.77 466.76 336.77 466.26 336.27 Z" />
<path fill="#1d1d1d" d=" M 524.27 336.27 C 524.77 336.78 524.77 336.78 524.27 336.27 Z" />
<path fill="#1d1d1d" d=" M 496.27 338.27 C 496.77 338.77 496.77 338.77 496.27 338.27 Z" />
<path fill="#1d1d1d" d=" M 514.27 344.27 C 514.77 344.77 514.77 344.77 514.27 344.27 Z" />
<path fill="#1d1d1d" d=" M 474.27 348.27 C 474.77 348.77 474.77 348.77 474.27 348.27 Z" />
<path fill="#1d1d1d" d=" M 488.27 348.26 C 488.77 348.77 488.77 348.77 488.27 348.26 Z" />
<path fill="#1d1d1d" d=" M 457.27 350.27 C 457.77 350.77 457.77 350.77 457.27 350.27 Z" />
<path fill="#1d1d1d" d=" M 532.26 354.28 C 532.77 354.79 532.77 354.79 532.26 354.28 Z" />
<path fill="#1d1d1d" d=" M 506.27 355.27 C 506.78 355.78 506.78 355.78 506.27 355.27 Z" />
<path fill="#1d1d1d" d=" M 466.27 357.26 C 466.77 357.76 466.77 357.76 466.27 357.26 Z" />
<path fill="#1d1d1d" d=" M 523.27 359.27 C 523.77 359.77 523.77 359.77 523.27 359.27 Z" />
<path fill="#1d1d1d" d=" M 497.28 362.27 C 497.78 362.77 497.78 362.77 497.28 362.27 Z" />
<path fill="#1d1d1d" d=" M 481.27 364.27 C 481.77 364.77 481.77 364.77 481.27 364.27 Z" />
<path fill="#1d1d1d" d=" M 452.27 368.28 C 452.77 368.78 452.77 368.78 452.27 368.28 Z" />
<path fill="#1d1d1d" d=" M 513.27 368.27 C 513.77 368.77 513.77 368.77 513.27 368.27 Z" />
<path fill="#1d1d1d" d=" M 490.27 372.28 C 490.77 372.78 490.77 372.78 490.27 372.28 Z" />
<path fill="#1d1d1d" d=" M 473.27 373.26 C 473.77 373.77 473.77 373.77 473.27 373.26 Z" />
<path fill="#1d1d1d" d=" M 461.27 378.28 C 461.77 378.78 461.77 378.78 461.27 378.28 Z" />
<path fill="#1d1d1d" d=" M 505.27 381.27 C 505.77 381.77 505.77 381.77 505.27 381.27 Z" />
<path fill="#1d1d1d" d=" M 523.27 382.27 C 523.77 382.77 523.77 382.77 523.27 382.27 Z" />
<path fill="#1d1d1d" d=" M 482.27 387.27 C 482.77 387.77 482.77 387.77 482.27 387.27 Z" />
<path fill="#1d1d1d" d=" M 515.27 389.27 C 515.77 389.77 515.77 389.77 515.27 389.27 Z" />
<path fill="#1d1d1d" d=" M 530.27 389.27 C 530.78 389.78 530.78 389.78 530.27 389.27 Z" />
<path fill="#1d1d1d" d=" M 494.27 392.26 C 494.77 392.76 494.77 392.76 494.27 392.26 Z" />
<path fill="#1d1d1d" d=" M 453.27 393.27 C 453.77 393.78 453.77 393.78 453.27 393.27 Z" />
<path fill="#1d1d1d" d=" M 469.27 394.27 C 469.77 394.77 469.77 394.77 469.27 394.27 Z" />
<path fill="#1d1d1d" d=" M 461.27 400.27 C 461.77 400.77 461.77 400.77 461.27 400.27 Z" />
<path fill="#1d1d1d" d=" M 505.27 401.27 C 505.77 401.77 505.77 401.77 505.27 401.27 Z" />
<path fill="#1d1d1d" d=" M 486.27 404.27 C 486.77 404.77 486.77 404.77 486.27 404.27 Z" />
<path fill="#1d1d1d" d=" M 478.26 405.26 C 478.77 405.76 478.77 405.76 478.26 405.26 Z" />
<path fill="#1d1d1d" d=" M 514.27 410.27 C 514.77 410.77 514.77 410.77 514.27 410.27 Z" />
<path fill="#1d1d1d" d=" M 522.27 412.27 C 522.77 412.77 522.77 412.77 522.27 412.27 Z" />
<path fill="#1d1d1d" d=" M 496.27 413.27 C 496.77 413.77 496.77 413.77 496.27 413.27 Z" />
<path fill="#1d1d1d" d=" M 452.27 417.27 C 452.77 417.77 452.77 417.77 452.27 417.27 Z" />
<path fill="#1d1d1d" d=" M 467.27 420.27 C 467.77 420.77 467.77 420.77 467.27 420.27 Z" />
<path fill="#1d1d1d" d=" M 460.27 422.27 C 460.77 422.77 460.77 422.77 460.27 422.27 Z" />
<path fill="#1d1d1d" d=" M 505.27 422.28 C 505.77 422.78 505.77 422.78 505.27 422.28 Z" />
<path fill="#1d1d1d" d=" M 478.26 427.27 C 478.76 427.77 478.76 427.77 478.26 427.27 Z" />
<path fill="#1d1d1d" d=" M 485.27 427.27 C 485.77 427.77 485.77 427.77 485.27 427.27 Z" />
<path fill="#1d1d1d" d=" M 534.26 427.27 C 534.77 427.78 534.77 427.78 534.26 427.27 Z" />
<path fill="#1d1d1d" d=" M 525.27 433.28 C 525.77 433.78 525.77 433.78 525.27 433.28 Z" />
<path fill="#1d1d1d" d=" M 493.27 434.27 C 493.76 434.77 493.76 434.77 493.27 434.27 Z" />
<path fill="#1d1d1d" d=" M 515.27 434.27 C 515.77 434.77 515.77 434.77 515.27 434.27 Z" />
<path fill="#1d1d1d" d=" M 444.26 435.27 C 444.77 435.78 444.77 435.78 444.26 435.27 Z" />
<path fill="#1d1d1d" d=" M 502.26 442.27 C 502.76 442.77 502.76 442.77 502.26 442.27 Z" />
<path fill="#1d1d1d" d=" M 455.27 445.28 C 455.77 445.79 455.77 445.79 455.27 445.28 Z" />
<path fill="#1d1d1d" d=" M 511.26 445.27 C 511.78 445.76 511.78 445.76 511.26 445.27 Z" />
<path fill="#1d1d1d" d=" M 450.28 446.26 C 450.78 446.77 450.78 446.77 450.28 446.26 Z" />
<path fill="#1d1d1d" d=" M 460.27 446.27 C 460.78 446.78 460.78 446.78 460.27 446.27 Z" />
<path fill="#1d1d1d" d=" M 466.26 446.27 C 466.78 446.76 466.78 446.76 466.26 446.27 Z" />
<path fill="#989696" d=" M 437.31 447.36 C 437.39 447.41 437.56 447.50 437.64 447.55 L 437.31 447.36 Z" />
<path fill="#989696" d=" M 440.21 447.59 C 440.35 447.60 440.63 447.63 440.77 447.64 L 440.21 447.59 Z" />
<path fill="#989696" d=" M 443.52 447.50 L 443.75 447.50 C 443.63 447.50 443.40 447.51 443.28 447.51 L 443.52 447.50 Z" />
<path fill="#989696" d=" M 446.36 447.55 C 446.44 447.55 446.60 447.55 446.68 447.56 C 446.60 447.55 446.44 447.55 446.36 447.55 Z" />
<path fill="#989696" d=" M 448.33 447.40 C 448.44 447.41 448.65 447.43 448.76 447.43 L 448.54 447.62 L 448.33 447.40 Z" />
<path fill="#989696" d=" M 452.31 447.58 C 452.39 447.49 452.55 447.32 452.63 447.23 L 452.63 447.56 L 452.31 447.58 Z" />
<path fill="#989696" d=" M 458.22 447.38 L 458.50 447.18 L 458.86 447.31 L 458.52 447.62 L 458.22 447.38 Z" />
<path fill="#989696" d=" M 462.40 447.45 C 462.44 447.44 462.51 447.43 462.54 447.43 L 462.71 447.41 L 462.40 447.45 Z" />
<path fill="#989696" d=" M 464.16 447.38 C 464.26 447.37 464.45 447.37 464.55 447.37 L 464.37 447.57 L 464.16 447.38 Z" />
<path fill="#989696" d=" M 469.51 447.51 L 469.73 447.52 C 469.62 447.52 469.39 447.52 469.28 447.52 L 469.51 447.51 Z" />
<path fill="#989696" d=" M 471.33 447.58 C 471.41 447.59 471.58 447.59 471.66 447.59 C 471.58 447.59 471.41 447.59 471.33 447.58 Z" />
<path fill="#989696" d=" M 473.34 447.59 C 473.43 447.59 473.60 447.59 473.69 447.59 C 473.60 447.59 473.43 447.59 473.34 447.59 Z" />
<path fill="#989696" d=" M 475.29 447.58 C 475.39 447.57 475.59 447.57 475.69 447.57 C 475.59 447.57 475.39 447.57 475.29 447.58 Z" />
<path fill="#989696" d=" M 477.32 447.58 C 477.42 447.58 477.61 447.58 477.71 447.58 C 477.61 447.58 477.42 447.58 477.32 447.58 Z" />
<path fill="#989696" d=" M 479.30 447.58 C 479.39 447.58 479.56 447.58 479.65 447.58 C 479.56 447.58 479.39 447.58 479.30 447.58 Z" />
<path fill="#989696" d=" M 481.31 447.57 C 481.41 447.57 481.60 447.58 481.69 447.58 C 481.60 447.58 481.41 447.57 481.31 447.57 Z" />
<path fill="#989696" d=" M 483.31 447.58 C 483.40 447.58 483.57 447.58 483.66 447.58 C 483.57 447.58 483.40 447.58 483.31 447.58 Z" />
<path fill="#989696" d=" M 485.31 447.57 C 485.41 447.57 485.61 447.58 485.71 447.58 C 485.61 447.58 485.41 447.57 485.31 447.57 Z" />
<path fill="#989696" d=" M 487.30 447.58 C 487.40 447.58 487.58 447.58 487.67 447.57 C 487.58 447.58 487.40 447.58 487.30 447.58 Z" />
<path fill="#989696" d=" M 489.32 447.58 C 489.42 447.58 489.61 447.58 489.71 447.58 C 489.61 447.58 489.42 447.58 489.32 447.58 Z" />
<path fill="#989696" d=" M 491.30 447.58 C 491.39 447.58 491.56 447.58 491.64 447.58 C 491.56 447.58 491.39 447.58 491.30 447.58 Z" />
<path fill="#989696" d=" M 493.34 447.56 C 493.42 447.56 493.60 447.56 493.68 447.55 C 493.60 447.56 493.42 447.56 493.34 447.56 Z" />
<path fill="#989696" d=" M 495.34 447.56 C 495.44 447.56 495.62 447.57 495.71 447.58 C 495.62 447.57 495.44 447.56 495.34 447.56 Z" />
<path fill="#989696" d=" M 497.13 447.42 L 497.48 447.28 L 497.81 447.54 L 497.37 447.77 L 497.13 447.42 Z" />
<path fill="#989696" d=" M 499.23 447.39 C 499.30 447.38 499.45 447.37 499.52 447.36 L 499.55 447.57 L 499.23 447.39 Z" />
<path fill="#1d1d1d" d=" M 501.22 447.37 C 501.35 447.36 501.60 447.34 501.73 447.33 L 501.50 447.62 L 501.22 447.37 Z" />
<path fill="#1d1d1d" d=" M 517.25 447.20 L 517.76 447.22 L 517.75 447.73 L 517.24 447.72 L 517.25 447.20 Z" />
<path fill="#1d1d1d" d=" M 521.26 447.20 L 521.77 447.23 L 521.75 447.74 L 521.24 447.72 L 521.26 447.20 Z" />
<path fill="#1d1d1d" d=" M 525.26 447.21 L 525.77 447.25 L 525.74 447.79 L 525.23 447.73 L 525.26 447.21 Z" />
<path fill="#1d1d1d" d=" M 529.24 447.47 C 529.37 447.45 529.62 447.41 529.75 447.39 L 529.55 447.71 L 529.24 447.47 Z" />
<path fill="#1d1d1d" d=" M 533.26 447.47 C 533.38 447.46 533.63 447.42 533.76 447.40 L 533.55 447.72 L 533.26 447.47 Z" />
<path fill="#1d1d1d" d=" M 537.23 447.42 C 537.36 447.40 537.61 447.35 537.73 447.33 L 537.54 447.63 L 537.23 447.42 Z" />
<path fill="#989696" d=" M 542.20 447.54 L 542.53 447.33 L 542.91 447.55 L 542.50 447.88 L 542.20 447.54 Z" />
<path fill="#1d1d1d" d=" M 724.96 526.01 C 731.33 520.44 737.79 514.99 744.13 509.38 C 745.84 511.84 747.45 514.37 749.05 516.92 C 741.93 521.18 734.70 525.27 727.62 529.60 C 726.71 528.41 725.83 527.21 724.96 526.01 Z" />
<path fill="#1d1d1d" d=" M 113.19 533.69 C 114.60 533.61 115.99 533.92 116.75 535.25 C 139.34 561.98 162.16 588.57 184.73 615.29 C 184.79 598.19 184.75 581.09 184.76 563.98 C 184.71 556.13 185.02 548.16 183.36 540.44 C 182.88 537.94 180.38 536.97 178.28 536.20 L 179.17 534.91 C 186.70 534.78 194.30 535.28 201.85 534.68 C 202.40 537.41 198.24 537.27 198.06 539.86 C 195.91 548.41 197.26 557.33 196.52 566.03 C 196.53 591.95 196.38 617.87 196.59 643.79 C 196.05 643.87 194.96 644.01 194.42 644.09 C 182.82 630.55 171.15 617.08 159.58 603.52 C 148.03 589.88 136.04 576.59 125.03 562.50 C 125.09 584.35 124.73 606.20 125.35 628.04 C 125.67 631.67 125.59 635.55 127.23 638.92 C 128.15 640.84 131.59 640.30 131.17 643.01 C 123.07 642.54 114.95 642.83 106.85 642.84 C 107.06 640.18 110.92 640.74 111.43 638.16 C 113.43 632.33 112.77 626.02 113.21 619.96 C 113.24 591.21 113.28 562.45 113.19 533.69 Z" />
<path fill="#1d1d1d" d=" M 536.00 534.81 C 543.78 533.22 551.80 534.26 559.43 536.10 C 558.90 542.33 559.61 548.72 558.34 554.84 C 555.76 552.91 555.94 548.73 552.65 547.44 C 544.64 543.43 533.32 545.35 528.16 553.04 C 524.08 559.34 525.48 568.02 530.39 573.46 C 539.05 582.94 551.60 588.40 558.73 599.35 C 564.02 607.60 564.69 618.58 560.52 627.44 C 557.20 634.66 550.44 639.97 542.92 642.31 C 532.27 645.71 520.72 644.24 510.28 640.80 C 510.44 634.47 510.89 628.16 511.05 621.83 C 513.50 621.50 513.30 624.38 514.24 625.91 C 516.00 630.10 520.67 631.87 524.87 632.47 C 531.93 633.56 539.91 632.31 545.10 627.03 C 550.75 621.22 550.68 611.41 545.96 605.07 C 537.10 593.92 522.11 588.65 515.30 575.63 C 510.13 565.66 511.30 552.39 519.07 544.07 C 523.42 539.12 529.58 536.03 536.00 534.81 Z" />
<path fill="#1d1d1d" d=" M 612.12 534.86 C 639.14 534.96 666.19 535.28 693.22 534.72 C 693.29 540.87 693.25 547.02 693.23 553.17 C 690.59 553.60 690.91 550.56 689.85 549.02 C 688.25 546.37 684.84 545.94 682.04 545.82 C 674.43 545.69 666.82 545.85 659.22 545.74 C 659.31 566.51 659.18 587.27 659.28 608.04 C 659.96 617.72 658.65 627.59 660.86 637.12 C 661.24 639.62 663.65 640.71 665.80 641.37 C 665.66 641.78 665.37 642.61 665.23 643.02 C 656.82 642.53 648.37 642.78 639.95 642.90 C 639.72 639.99 643.66 640.73 644.28 638.28 C 646.63 632.14 645.66 625.36 646.22 618.93 C 646.26 594.55 646.24 570.16 646.22 545.78 C 638.82 545.79 631.42 545.74 624.03 545.79 C 621.13 545.98 617.42 545.99 615.80 548.87 C 614.70 550.46 614.91 553.57 612.26 553.16 C 612.16 547.06 612.36 540.95 612.12 534.86 Z" />
<path fill="#1d1d1d" d=" M 0.00 534.73 C 8.46 535.09 16.92 535.05 25.37 534.74 C 25.11 536.90 22.79 537.18 21.35 538.33 C 20.41 539.78 19.95 541.50 19.70 543.20 C 18.61 550.76 19.25 558.41 18.81 566.01 C 18.71 576.34 18.75 586.67 18.79 597.00 C 18.88 605.37 19.61 614.33 24.66 621.35 C 29.50 628.66 38.53 632.05 47.03 632.03 C 55.58 632.23 64.54 628.70 69.46 621.47 C 74.89 613.81 75.35 604.07 75.51 595.02 C 75.48 585.34 75.55 575.66 75.47 565.98 C 74.98 558.28 75.65 550.52 74.50 542.87 C 74.20 541.25 73.91 539.49 72.79 538.22 C 71.37 537.14 69.42 536.64 68.70 534.84 C 75.50 534.70 82.31 535.31 89.10 534.83 C 90.78 534.93 93.01 534.15 94.07 535.97 C 88.92 537.05 88.65 542.71 88.40 546.95 C 87.69 563.29 88.11 579.66 88.01 596.01 C 88.19 607.28 86.75 619.31 79.99 628.71 C 74.02 637.16 64.24 642.41 54.09 643.86 C 43.30 645.17 31.70 643.85 22.47 637.72 C 15.07 632.55 9.44 624.67 7.42 615.82 C 4.61 604.42 5.77 592.57 5.52 580.95 C 5.29 568.15 6.14 555.29 4.71 542.54 C 4.58 539.61 2.76 537.31 0.00 536.41 L 0.00 534.73 Z" />
<path fill="#1d1d1d" d=" M 217.84 534.75 C 226.10 535.08 234.36 535.00 242.61 534.80 C 244.23 537.31 239.66 536.92 239.08 538.94 C 237.22 543.33 237.42 548.27 237.25 552.96 C 236.81 566.97 237.08 581.00 237.00 595.02 C 237.07 607.80 236.75 620.62 237.82 633.37 C 237.93 636.76 239.38 640.30 242.98 641.17 C 243.08 641.63 243.26 642.53 243.36 642.99 C 234.86 642.63 226.33 642.65 217.84 642.99 C 217.34 640.01 221.41 640.64 222.02 638.19 C 223.49 634.68 223.40 630.78 223.69 627.06 C 224.27 605.04 223.89 583.01 223.99 560.99 C 223.43 553.91 224.42 546.56 222.25 539.71 C 221.81 536.88 217.22 537.93 217.84 534.75 Z" />
<path fill="#1d1d1d" d=" M 249.29 534.70 C 257.95 535.17 266.63 535.05 275.29 534.70 C 276.22 537.76 271.91 536.46 271.39 538.90 C 271.26 543.56 273.36 547.90 274.85 552.22 C 281.75 569.87 289.12 587.33 295.78 605.08 C 297.32 609.03 298.50 613.12 300.30 616.97 C 307.48 594.92 316.95 573.70 325.24 552.06 C 326.69 547.83 328.72 543.55 328.71 539.02 C 328.26 536.57 324.21 537.69 324.84 534.76 C 332.90 534.99 340.97 535.08 349.03 534.83 L 349.47 536.17 C 345.00 538.20 343.10 542.85 341.14 547.01 C 334.05 562.54 327.87 578.47 321.26 594.21 C 314.55 610.87 307.48 627.39 300.89 644.10 C 300.04 644.05 298.88 644.58 298.27 643.73 C 285.96 614.23 274.11 584.53 261.59 555.12 C 259.15 549.79 256.95 544.27 253.66 539.40 C 252.61 537.32 249.15 537.48 249.29 534.70 Z" />
<path fill="#1d1d1d" d=" M 356.81 534.79 C 375.61 535.03 394.42 535.10 413.22 534.72 C 412.98 540.71 412.73 546.70 412.71 552.70 C 409.92 552.94 410.59 549.47 408.89 548.23 C 406.35 546.36 403.06 546.03 400.01 546.00 C 391.74 546.04 383.46 545.98 375.19 546.05 C 375.26 558.02 375.27 569.99 375.19 581.96 C 384.52 581.93 393.86 582.20 403.18 581.83 C 406.11 582.15 407.02 578.85 409.50 578.31 C 409.25 584.71 409.36 591.09 409.46 597.49 C 406.97 596.99 406.54 593.52 403.79 593.54 C 394.30 592.57 384.72 593.18 375.19 593.05 C 375.33 605.62 375.14 618.20 375.29 630.78 C 377.74 631.80 380.42 631.46 383.00 631.50 C 389.96 631.46 396.92 631.54 403.88 631.47 C 406.68 631.24 410.11 631.19 411.83 628.58 C 412.76 627.22 412.76 624.75 414.95 624.96 C 414.96 630.99 414.43 637.01 414.49 643.05 C 403.68 642.50 392.86 642.89 382.05 642.78 C 373.55 642.89 365.03 642.50 356.55 643.04 C 356.36 640.17 360.36 640.51 360.62 637.81 C 362.96 628.41 361.47 618.60 362.20 609.04 C 362.27 594.69 362.26 580.34 362.19 565.99 C 361.47 557.13 362.95 547.98 360.55 539.32 C 360.09 536.95 356.44 537.48 356.81 534.79 Z" />
<path fill="#1d1d1d" d=" M 430.83 535.01 C 444.86 535.53 459.30 532.57 472.97 536.92 C 481.79 539.56 488.79 547.06 490.98 555.98 C 493.42 565.61 491.68 576.55 485.29 584.32 C 481.24 589.52 475.41 593.01 469.30 595.27 C 476.12 604.26 482.71 613.44 489.48 622.47 C 494.41 628.69 498.41 636.15 505.45 640.28 C 506.06 640.79 507.26 641.82 507.86 642.33 C 502.99 643.28 497.97 642.54 493.03 642.80 C 490.45 643.03 487.53 642.38 486.04 640.07 C 476.07 625.83 466.15 611.56 456.01 597.45 C 453.84 597.48 451.67 597.48 449.52 597.48 C 449.67 610.04 448.92 622.66 450.25 635.18 C 450.42 637.94 452.06 640.43 454.82 641.14 C 454.91 641.60 455.07 642.53 455.16 642.99 C 447.06 642.65 438.94 642.65 430.85 642.99 C 430.28 640.12 434.03 640.92 434.76 638.72 C 437.06 632.79 436.21 626.24 436.72 620.02 C 436.78 599.01 436.75 578.00 436.73 556.99 C 436.27 551.03 436.98 544.79 434.84 539.10 C 434.14 536.90 430.41 537.74 430.83 535.01 Z" />
<path fill="#1d1d1d" d=" M 577.51 536.17 C 577.49 533.68 580.49 535.10 581.96 534.81 C 588.73 535.23 595.51 534.93 602.27 534.69 C 603.29 537.59 599.42 536.83 598.68 538.93 C 596.69 543.31 597.18 548.31 596.82 553.00 C 596.70 569.68 596.78 586.36 596.76 603.05 C 597.00 614.03 596.05 625.14 597.89 636.02 C 598.08 638.73 600.25 640.33 602.64 641.13 C 602.73 641.58 602.90 642.48 602.98 642.93 C 594.45 642.73 585.90 642.57 577.39 643.02 C 576.91 640.13 580.67 640.70 581.48 638.51 C 583.66 633.32 582.97 627.53 583.47 622.06 C 583.58 602.36 583.46 582.66 583.51 562.96 C 583.38 555.35 583.81 547.55 582.01 540.11 C 581.60 537.74 579.04 537.43 577.51 536.17 Z" />
<path fill="#1d1d1d" d=" M 703.94 534.85 C 722.62 535.00 741.32 535.06 760.00 534.77 C 759.55 540.67 759.43 546.58 759.48 552.50 C 759.02 552.50 758.11 552.49 757.66 552.49 C 757.02 548.80 753.87 546.23 750.15 546.21 C 740.78 545.78 731.38 546.11 722.00 546.04 C 722.01 558.03 721.99 570.01 722.01 582.00 C 731.02 581.93 740.05 582.13 749.06 581.90 C 751.69 581.97 753.94 580.42 755.07 578.09 C 757.10 578.85 755.89 581.34 756.11 582.93 C 755.79 587.74 756.15 592.57 756.26 597.39 C 753.93 597.59 753.85 594.50 751.92 593.97 C 749.73 593.13 747.34 593.26 745.05 593.12 C 737.37 592.90 729.70 593.07 722.02 593.01 C 721.98 605.67 722.02 618.32 722.00 630.98 C 726.91 632.00 731.96 631.28 736.93 631.49 C 742.98 631.26 749.14 632.07 755.12 630.87 C 757.92 630.41 759.01 627.58 760.10 625.35 L 761.81 625.18 C 761.37 631.13 761.18 637.11 761.24 643.08 C 752.83 642.53 744.40 642.87 735.99 642.78 C 725.22 642.86 714.45 642.58 703.69 642.95 C 702.17 640.67 706.41 640.65 706.86 638.79 C 708.77 634.15 708.39 628.97 708.72 624.05 C 708.78 600.36 708.76 576.67 708.73 552.98 C 708.34 548.10 708.89 542.87 706.76 538.34 C 705.96 536.95 702.44 536.98 703.94 534.85 Z" />
<path fill="#1d1d1d" d=" M 817.93 535.36 C 826.92 534.68 835.95 534.72 844.96 534.48 C 858.36 534.16 872.36 535.70 884.04 542.78 C 896.59 550.04 904.20 563.89 906.02 578.02 C 907.58 591.08 905.78 604.83 899.33 616.44 C 892.80 627.81 881.87 636.69 869.18 640.19 C 852.50 645.18 834.97 642.18 817.89 642.78 C 817.15 639.60 821.62 640.72 822.14 638.05 C 824.05 632.95 823.58 627.36 823.97 622.01 C 824.03 604.67 823.98 587.33 824.00 570.00 C 823.94 561.36 824.25 552.69 823.34 544.09 C 823.00 541.71 822.62 538.66 820.03 537.70 C 818.90 537.30 818.05 536.60 817.93 535.36 Z" />
<path fill="#1d1d1d" d=" M 921.48 534.82 C 940.13 535.03 958.80 535.08 977.46 534.74 C 976.98 540.58 977.05 546.44 976.93 552.29 C 975.24 553.99 974.89 550.89 974.13 550.01 C 972.72 546.45 968.31 546.23 965.06 546.03 C 956.50 546.04 947.94 545.94 939.39 546.10 C 939.59 558.03 939.51 569.97 939.43 581.91 C 946.95 582.10 954.47 581.95 962.00 582.01 C 964.50 581.96 967.11 582.16 969.53 581.31 C 971.18 580.75 971.69 578.42 973.53 578.27 C 973.71 584.46 973.34 590.72 973.70 596.93 C 972.74 598.41 971.78 596.16 971.15 595.51 C 969.93 593.37 967.14 593.42 965.02 593.21 C 956.47 592.89 947.91 592.97 939.37 593.13 C 939.63 605.63 939.47 618.15 939.45 630.65 C 942.09 632.02 945.13 631.36 947.99 631.50 C 955.63 631.32 963.30 631.85 970.93 631.21 C 974.19 631.21 976.47 628.58 977.39 625.69 C 977.86 625.56 978.79 625.32 979.26 625.19 C 978.93 631.13 978.65 637.07 978.80 643.02 C 966.85 642.53 954.88 642.88 942.93 642.78 C 935.56 642.88 928.18 642.53 920.83 643.02 C 920.35 640.35 923.70 640.65 924.46 638.65 C 926.31 634.01 925.80 628.86 926.23 623.98 C 926.19 599.68 926.37 575.37 926.13 551.06 C 925.55 545.88 926.99 538.42 920.93 536.03 L 921.48 534.82 Z" />
<path fill="#fefefe" d=" M 449.45 545.95 C 457.69 545.02 467.21 545.36 473.46 551.59 C 481.96 560.68 479.57 577.50 468.63 583.63 C 462.96 587.21 456.05 587.50 449.55 587.18 C 449.39 573.44 449.58 559.69 449.45 545.95 Z" />
<path fill="#fefefe" d=" M 837.20 546.51 C 849.22 545.46 861.94 545.70 872.92 551.28 C 884.20 557.26 891.24 569.54 892.42 582.06 C 893.62 594.28 890.82 607.34 882.91 616.97 C 872.24 630.37 853.34 633.68 837.25 630.80 C 837.21 602.70 837.31 574.60 837.20 546.51 Z" />
<path fill="#1d1d1d" d=" M 154.35 680.43 C 170.20 675.66 187.57 675.52 203.34 680.74 C 218.98 685.93 232.61 696.88 240.87 711.15 C 256.89 738.86 253.14 776.76 231.48 800.46 C 219.07 814.36 201.04 822.43 182.61 824.00 L 170.41 824.00 C 155.06 822.73 140.00 816.86 128.36 806.67 C 117.18 797.08 109.09 783.94 105.57 769.63 C 100.54 749.38 103.81 726.93 115.34 709.42 C 124.36 695.51 138.55 685.27 154.35 680.43 Z" />
<path fill="#1d1d1d" d=" M 619.46 789.54 C 635.12 751.83 650.33 713.94 665.81 676.16 C 666.58 676.18 668.12 676.22 668.89 676.23 C 684.87 716.49 700.43 756.92 716.77 797.04 C 719.69 803.66 722.14 810.61 726.32 816.57 C 727.46 819.05 731.93 818.57 731.13 822.00 C 720.27 821.86 709.43 822.00 698.58 821.99 C 698.17 819.68 699.80 819.03 701.69 818.72 C 702.03 818.30 702.71 817.47 703.05 817.05 C 703.19 811.61 700.97 806.55 699.26 801.51 C 696.85 794.66 693.94 787.99 691.63 781.11 C 674.49 780.89 657.35 781.09 640.20 781.01 C 636.40 790.96 631.95 800.69 628.95 810.93 C 628.54 813.07 627.57 815.49 628.75 817.55 C 629.36 819.09 631.34 818.98 632.66 819.64 C 632.72 820.21 632.84 821.36 632.90 821.93 C 622.39 822.02 611.89 821.88 601.38 821.99 C 601.44 821.45 601.56 820.37 601.62 819.83 C 604.08 818.64 606.39 817.04 607.71 814.57 C 612.45 806.65 615.75 797.97 619.46 789.54 Z" />
<path fill="#1d1d1d" d=" M 3.68 679.05 C 13.77 678.66 23.86 678.63 33.95 678.20 C 45.65 678.42 58.35 679.57 67.82 687.18 C 83.33 699.36 84.52 725.59 70.08 739.06 C 66.02 743.28 60.56 745.74 55.02 747.38 C 66.62 748.39 77.55 755.62 82.78 766.07 C 87.47 775.70 87.32 787.34 83.20 797.14 C 79.01 807.31 69.81 814.88 59.55 818.43 C 41.31 824.69 21.82 821.11 3.00 821.50 C 3.00 820.92 3.00 819.76 3.00 819.18 C 8.32 819.15 9.55 813.28 9.85 809.07 C 11.25 791.74 10.60 774.33 10.75 756.96 C 10.73 740.62 10.79 724.29 10.73 707.95 C 10.15 700.11 11.07 691.92 8.46 684.38 C 7.90 681.34 2.80 682.56 3.68 679.05 Z" />
<path fill="#1d1d1d" d=" M 269.66 678.72 C 285.94 679.31 302.38 676.60 318.53 679.61 C 327.59 681.25 336.48 685.52 342.21 692.91 C 350.43 703.08 352.15 717.38 348.88 729.78 C 345.30 743.50 333.78 754.51 320.30 758.45 C 331.88 774.87 344.09 790.86 356.01 807.03 C 360.05 812.02 364.33 817.54 370.68 819.61 C 370.73 820.19 370.84 821.35 370.89 821.93 C 365.25 822.29 359.61 821.58 353.98 822.02 C 350.25 822.13 345.73 822.32 343.16 819.06 C 329.48 800.02 316.49 780.47 302.48 761.68 C 299.58 761.80 296.68 761.79 293.78 761.78 C 293.79 769.52 293.71 777.26 293.79 785.00 C 294.47 795.04 293.18 805.34 295.74 815.18 C 296.21 817.95 298.80 819.02 301.15 819.81 C 301.19 820.36 301.27 821.45 301.31 822.00 C 290.66 821.89 280.03 821.97 269.38 821.99 C 268.57 818.52 273.09 819.56 274.19 817.09 C 275.69 814.35 275.98 811.15 276.32 808.11 C 277.24 796.43 276.95 784.71 277.00 773.01 C 276.99 756.69 276.99 740.38 277.00 724.06 C 276.96 713.31 277.22 702.54 276.29 691.83 C 275.82 688.66 275.69 685.08 273.39 682.61 C 271.86 681.35 268.31 681.51 269.66 678.72 Z" />
<path fill="#1d1d1d" d=" M 378.70 679.04 C 393.81 678.63 408.93 677.80 424.05 678.16 C 441.63 678.58 459.87 682.95 473.64 694.39 C 486.25 704.88 493.56 720.77 495.49 736.88 C 497.46 754.72 494.69 773.57 485.16 789.02 C 476.42 803.05 462.54 813.96 446.56 818.45 C 431.15 823.23 414.85 822.34 398.95 822.01 C 392.12 822.19 385.32 821.62 378.50 821.77 C 378.49 821.13 378.48 819.85 378.48 819.21 C 380.95 818.98 383.46 817.65 384.25 815.16 C 385.85 810.64 385.91 805.76 386.16 801.03 C 386.89 778.37 386.34 755.68 386.52 733.01 C 386.29 718.22 387.18 703.32 385.26 688.61 C 385.05 684.88 382.50 681.88 378.78 681.37 C 378.76 680.78 378.72 679.62 378.70 679.04 Z" />
<path fill="#1d1d1d" d=" M 737.43 678.53 C 748.62 678.65 759.80 678.88 770.98 678.44 C 770.99 679.02 771.00 680.20 771.00 680.78 C 765.23 681.28 764.08 687.56 763.74 692.25 C 762.45 710.13 763.21 728.06 763.00 745.97 C 763.26 757.39 762.07 769.02 764.80 780.24 C 766.98 789.49 772.53 798.34 781.06 802.92 C 790.91 808.29 803.01 809.08 813.66 805.75 C 821.53 803.29 828.42 797.76 832.28 790.44 C 837.52 780.88 838.19 769.68 838.24 759.01 C 838.14 742.00 838.47 724.98 837.99 707.98 C 838.01 702.15 837.92 696.30 837.20 690.51 C 836.77 687.73 836.35 684.71 834.40 682.55 C 832.72 681.15 829.40 681.45 829.73 678.51 C 840.43 678.63 851.14 678.96 861.84 678.38 C 861.89 678.95 861.99 680.10 862.03 680.68 C 859.28 681.21 856.89 683.04 856.56 685.99 C 854.54 695.48 855.13 705.29 855.01 714.94 C 854.87 732.64 855.31 750.34 854.71 768.03 C 854.13 781.04 851.23 794.62 842.80 804.92 C 833.66 816.92 818.60 823.13 803.82 824.00 L 796.44 824.00 C 782.00 823.20 767.05 817.76 757.95 806.03 C 749.25 796.13 746.03 782.73 745.56 769.85 C 745.31 749.90 745.85 729.93 745.23 709.99 C 745.25 703.04 745.23 696.07 744.32 689.18 C 743.86 686.78 743.46 684.06 741.52 682.38 C 739.86 681.32 737.32 681.05 737.43 678.53 Z" />
<path fill="#1d1d1d" d=" M 953.38 678.46 C 963.94 678.64 974.50 678.91 985.07 678.52 C 984.93 679.07 984.64 680.18 984.50 680.73 C 978.08 683.31 974.91 689.72 971.26 695.13 C 960.54 712.22 950.21 729.56 939.97 746.93 C 938.86 748.10 940.07 749.35 940.61 750.47 C 951.96 769.44 962.99 788.60 974.77 807.30 C 978.08 812.06 981.04 817.93 987.00 819.75 L 987.00 822.00 C 975.35 821.83 963.71 822.04 952.06 821.95 C 952.15 821.37 952.33 820.20 952.42 819.62 C 954.20 819.21 955.92 818.51 957.06 817.01 C 956.11 812.69 954.37 808.62 952.25 804.75 C 945.79 792.35 938.59 780.35 931.67 768.20 C 930.74 766.73 930.09 764.96 928.65 763.93 C 921.21 777.33 913.29 790.48 905.92 803.92 C 903.68 808.38 900.81 812.83 900.85 818.01 C 902.10 818.58 903.37 819.12 904.64 819.70 C 904.72 820.25 904.88 821.36 904.96 821.91 C 893.65 822.02 882.35 821.96 871.05 821.91 C 871.12 821.36 871.26 820.27 871.33 819.72 C 873.47 818.86 875.73 818.01 877.32 816.24 C 881.57 811.74 884.71 806.35 888.14 801.22 C 898.94 784.13 909.42 766.82 919.70 749.40 C 908.93 731.16 898.03 713.00 886.72 695.09 C 883.04 689.66 879.69 683.30 873.26 680.73 C 873.13 680.17 872.86 679.05 872.73 678.49 C 884.35 678.94 895.96 678.56 907.58 678.53 C 907.83 682.04 901.74 681.19 903.10 684.97 C 904.80 691.48 908.74 697.13 911.94 702.98 C 917.90 713.21 923.98 723.38 929.88 733.66 C 937.07 720.96 944.73 708.53 951.78 695.75 C 953.69 691.97 956.08 688.27 956.80 684.04 C 956.96 681.96 954.39 681.48 953.09 680.48 C 953.16 679.98 953.31 678.96 953.38 678.46 Z" />
<path fill="#1d1d1d" d=" M 515.67 678.50 C 527.10 678.28 538.52 678.89 549.94 678.74 C 563.40 678.92 576.84 678.28 590.30 678.49 C 589.89 686.30 589.48 694.12 589.58 701.94 C 588.98 701.96 587.77 702.00 587.17 702.02 C 586.65 699.28 585.52 696.32 582.79 695.11 C 578.47 693.22 573.62 693.18 568.99 693.21 C 559.24 693.24 549.49 693.24 539.74 693.22 C 539.80 709.22 539.72 725.23 539.78 741.23 C 550.86 741.22 561.93 741.22 573.00 741.23 C 575.67 741.13 578.51 741.09 580.91 739.76 C 582.35 738.53 583.08 736.29 585.37 736.52 C 584.96 744.79 584.90 753.07 585.42 761.34 C 582.49 762.15 582.64 758.42 580.56 757.46 C 577.95 756.09 574.90 756.09 572.03 756.01 C 561.28 756.03 550.53 755.99 539.78 756.05 C 539.74 769.38 539.77 782.72 539.76 796.05 C 539.86 799.58 539.43 803.16 540.31 806.63 C 552.15 807.44 564.05 806.79 575.91 807.00 C 580.11 806.77 585.28 807.04 588.21 803.43 C 589.90 801.82 589.27 797.90 592.52 798.60 C 592.45 806.40 591.84 814.20 592.01 822.01 C 582.36 822.05 572.71 821.99 563.06 822.03 C 547.06 821.49 531.05 822.42 515.05 821.91 C 515.13 821.33 515.30 820.18 515.39 819.60 C 517.63 819.13 519.84 817.90 520.38 815.49 C 523.07 805.55 521.75 795.12 522.51 784.97 C 522.50 760.97 522.54 736.96 522.48 712.96 C 521.86 703.82 522.84 694.49 520.71 685.50 C 520.26 682.91 518.11 681.54 515.85 680.73 C 515.80 680.17 515.72 679.06 515.67 678.50 Z" />
<path fill="#fefefe" d=" M 27.44 693.27 C 36.43 692.38 46.38 692.28 54.01 697.88 C 65.36 706.32 65.32 725.53 54.51 734.42 C 47.13 740.73 36.76 741.86 27.43 740.99 C 27.55 725.08 27.53 709.18 27.44 693.27 Z" />
<path fill="#fefefe" d=" M 165.52 693.63 C 179.59 690.65 194.87 693.26 206.90 701.22 C 219.83 709.67 228.59 723.87 231.04 739.06 C 233.38 753.31 231.20 768.46 224.15 781.15 C 219.08 790.37 211.26 798.08 201.84 802.82 C 187.71 809.97 170.45 810.59 155.87 804.39 C 140.85 798.10 129.33 784.53 124.84 768.95 C 120.27 753.51 121.50 736.25 128.88 721.87 C 136.06 707.60 149.83 696.80 165.52 693.63 Z" />
<path fill="#fefefe" d=" M 293.66 693.39 C 303.45 692.12 314.35 692.28 322.74 698.17 C 336.32 707.89 335.54 730.57 323.00 740.86 C 315.00 747.65 303.88 748.97 293.78 747.96 C 293.67 729.77 293.90 711.58 293.66 693.39 Z" />
<path fill="#fefefe" d=" M 404.01 694.06 C 419.74 692.49 436.37 692.96 450.85 700.03 C 465.57 707.35 474.95 722.92 477.09 738.94 C 479.21 754.75 476.20 771.70 466.90 784.88 C 458.89 796.42 445.88 803.91 432.10 806.09 C 422.89 807.54 413.29 807.89 404.12 806.03 C 403.86 768.71 404.07 731.38 404.01 694.06 Z" />
<path fill="#fefefe" d=" M 645.45 766.97 C 652.63 748.98 659.47 730.84 666.54 712.83 C 672.50 731.09 679.72 748.90 686.22 766.98 C 672.63 767.01 659.04 767.01 645.45 766.97 Z" />
<path fill="#fefefe" d=" M 27.55 755.23 C 38.90 754.85 51.76 755.12 60.64 763.22 C 71.68 772.78 70.53 792.26 58.77 800.76 C 49.87 807.05 37.89 808.71 27.44 806.16 C 27.61 789.18 27.37 772.20 27.55 755.23 Z" />
</svg>
